<svg xmlns="http://www.w3.org/2000/svg" version="1.1" xmlns:xlink="http://www.w3.org/1999/xlink" width="200" height="200"><svg xmlns="http://www.w3.org/2000/svg" version="1.1" xmlns:xlink="http://www.w3.org/1999/xlink" viewBox="0 0 200 200"><rect width="200" height="200" fill="url('#gradient')"></rect><defs><linearGradient id="SvgjsLinearGradient1001" gradientTransform="rotate(45 0.5 0.5)"><stop offset="0%" stop-color="#472027"></stop><stop offset="100%" stop-color="#192025"></stop></linearGradient></defs><g><g fill="#f3bd7d" transform="matrix(3.1680990030938467,0,0,3.1680990030938467,8.88570732515511,122.51371742450482)" stroke="#c06a3e" stroke-width="0.2"><path d="M12.24-14.22L12.24-11.57L7.97-11.57L7.97 0L4.54 0L4.54-11.57L0.35-11.57L0.35-14.22L12.24-14.22ZM25.45-7.47L25.45-6.82Q25.45-4.74 24.68-3.13Q23.91-1.53 22.49-0.67Q21.06 0.20 19.25 0.20Q17.43 0.20 16.03-0.64Q14.62-1.47 13.83-3.03Q13.05-4.58 13.01-6.59L13.01-6.59L13.01-7.39Q13.01-9.48 13.77-11.08Q14.54-12.68 15.97-13.54Q17.40-14.41 19.23-14.41L19.23-14.41Q21.04-14.41 22.45-13.55Q23.87-12.70 24.65-11.11Q25.44-9.52 25.45-7.47L25.45-7.47ZM21.96-6.76L21.96-7.41Q21.96-9.53 21.25-10.63Q20.55-11.73 19.23-11.73L19.23-11.73Q16.65-11.73 16.50-7.86L16.50-7.86L16.49-6.82Q16.49-4.73 17.19-3.60Q17.88-2.48 19.25-2.48L19.25-2.48Q20.55-2.48 21.25-3.58Q21.95-4.69 21.96-6.76L21.96-6.76ZM36.88 0L32.20 0L32.20-14.22L36.78-14.22Q38.66-14.22 40.17-13.36Q41.67-12.51 42.51-10.95Q43.36-9.39 43.37-7.46L43.37-7.46L43.37-6.81Q43.37-4.85 42.54-3.31Q41.72-1.76 40.22-0.88Q38.72-0.01 36.88 0L36.88 0ZM36.78-11.57L35.63-11.57L35.63-2.64L36.82-2.64Q38.29-2.64 39.08-3.69Q39.87-4.74 39.87-6.81L39.87-6.81L39.87-7.42Q39.87-9.48 39.08-10.53Q38.29-11.57 36.78-11.57L36.78-11.57ZM57.17-7.47L57.17-6.82Q57.17-4.74 56.40-3.13Q55.63-1.53 54.20-0.67Q52.78 0.20 50.97 0.20Q49.15 0.20 47.74-0.64Q46.34-1.47 45.55-3.03Q44.77-4.58 44.73-6.59L44.73-6.59L44.73-7.39Q44.73-9.48 45.49-11.08Q46.26-12.68 47.69-13.54Q49.12-14.41 50.95-14.41L50.95-14.41Q52.75-14.41 54.17-13.55Q55.59-12.70 56.37-11.11Q57.16-9.52 57.17-7.47L57.17-7.47ZM53.68-6.76L53.68-7.41Q53.68-9.53 52.97-10.63Q52.27-11.73 50.95-11.73L50.95-11.73Q48.37-11.73 48.22-7.86L48.22-7.86L48.21-6.82Q48.21-4.73 48.91-3.60Q49.60-2.48 50.97-2.48L50.97-2.48Q52.27-2.48 52.97-3.58Q53.67-4.69 53.68-6.76L53.68-6.76Z"></path></g></g></svg><style>@media (prefers-color-scheme: light) { :root { filter: none; } }
@media (prefers-color-scheme: dark) { :root { filter: none; } }
</style></svg>